<svg fill="none" height="32.5" viewBox="37.6843 51.5 60.6316 32.5" width="60.6316" xmlns="http://www.w3.org/2000/svg" xmlns:xlink="http://www.w3.org/1999/xlink"><clipPath id="a"><path d="m37.6843 52h60.6316v32h-60.6316z"/></clipPath><g clip-path="url(#a)" fill="#000"><path d="m57.4913 73.2593h-2.6585v10.5356h2.6585z"/><path d="m78.9278 76.2777c-.1069-.0556-.9616-.5626-2.2332-.5626-1.7221 0-2.9137 1.1967-2.9137 2.8102 0 1.5654 1.1419 2.8126 2.9137 2.8126 1.2497 0 2.1187-.496 2.2332-.5592v2.8278c-.3301.0935-1.237.3748-2.4244.3748-2.9886 0-5.6101-2.0615-5.6101-5.456 0-3.1462 2.3747-5.4535 5.6101-5.4535 1.2514 0 2.1743.304 2.4244.3781z"/><path d="m51.1778 76.2777c-.1069-.0556-.9616-.5626-2.2332-.5626-1.7221 0-2.9137 1.1967-2.9137 2.8102 0 1.5654 1.1419 2.8126 2.9137 2.8126 1.2497 0 2.1187-.496 2.2332-.5592v2.8278c-.3301.0935-1.237.3748-2.4244.3748-2.9886 0-5.6101-2.0615-5.6101-5.456 0-3.1462 2.3747-5.4535 5.6101-5.4535 1.2514 0 2.1743.304 2.4244.3781z"/><path d="m87.2913 75.7547c-1.5772 0-2.7486 1.2413-2.7486 2.7706 0 1.5326 1.1714 2.773 2.7486 2.773 1.5756 0 2.7503-1.2404 2.7503-2.773 0-1.5293-1.1747-2.7706-2.7503-2.7706zm5.5672 2.7706c0 3.0138-2.3267 5.4559-5.5672 5.4559-3.2404 0-5.5638-2.4421-5.5638-5.4559 0-3.0089 2.3234-5.4535 5.5638-5.4535 3.2405 0 5.5672 2.4446 5.5672 5.4535z"/><path d="m67.5734 75.6533c-.0395-.0127-1.1587-.3217-2.0783-.3217-1.0652 0-1.6446.357-1.6446.8631 0 .6417.7815.8657 1.2185 1.0038l.7335.2333c1.7255.549 2.512 1.7305 2.512 3.0139 0 2.6467-2.3276 3.536-4.3621 3.536-1.4139 0-2.7385-.2602-2.8691-.288v-2.4244c.2341.0589 1.3491.3915 2.5104.3915 1.3229 0 1.9309-.3865 1.9309-.9835 0-.5339-.5263-.8421-1.1857-1.0493-.1608-.0539-.4025-.1297-.5676-.1836-1.4804-.4682-2.7149-1.3381-2.7149-3.0821 0-1.9705 1.4754-3.2935 3.9259-3.2935 1.2943 0 2.512.3142 2.5911.3352z"/><path d="m40.3243 61.9366c0-.7259-.5928-1.3145-1.3196-1.3145-.7267 0-1.3204.5886-1.3204 1.3145v2.7655c0 .7301.5937 1.3195 1.3204 1.3195.7268 0 1.3196-.5894 1.3196-1.3195z"/><path d="m47.5743 58.3069c0-.7259-.5928-1.3162-1.3196-1.3162-.7275 0-1.3204.5903-1.3204 1.3162v6.3958c0 .7301.5929 1.3188 1.3204 1.3188.7268 0 1.3196-.5887 1.3196-1.3188z"/><path d="m54.8243 53.3403c0-.7259-.5928-1.3154-1.3196-1.3154-.7275 0-1.3204.5895-1.3204 1.3154v13.9899c0 .7301.5929 1.3195 1.3204 1.3195.7268 0 1.3196-.5894 1.3196-1.3195z"/><path d="m62.0743 58.3069c0-.7259-.5928-1.3162-1.3196-1.3162-.7275 0-1.3204.5903-1.3204 1.3162v6.3958c0 .7301.5929 1.3188 1.3204 1.3188.7268 0 1.3196-.5887 1.3196-1.3188z"/><path d="m69.3159 61.9366c0-.7259-.5886-1.3145-1.312-1.3145-.7267 0-1.3196.5886-1.3196 1.3145v2.7655c0 .7301.5929 1.3195 1.3196 1.3195.7234 0 1.312-.5894 1.312-1.3195z"/><path d="m69.3192 61.9366c0-.7259-.5928-1.3145-1.3196-1.3145-.7267 0-1.3204.5886-1.3204 1.3145v2.7655c0 .7301.5937 1.3195 1.3204 1.3195.7268 0 1.3196-.5894 1.3196-1.3195z"/><path d="m76.5692 58.3069c0-.7259-.5928-1.3162-1.3196-1.3162-.7276 0-1.3204.5903-1.3204 1.3162v6.3958c0 .7301.5928 1.3188 1.3204 1.3188.7268 0 1.3196-.5887 1.3196-1.3188z"/><path d="m83.8192 53.3403c0-.7259-.5928-1.3154-1.3196-1.3154-.7276 0-1.3204.5895-1.3204 1.3154v13.9899c0 .7301.5928 1.3195 1.3204 1.3195.7268 0 1.3196-.5894 1.3196-1.3195z"/><path d="m91.0692 58.3069c0-.7259-.5928-1.3162-1.3196-1.3162-.7276 0-1.3204.5903-1.3204 1.3162v6.3958c0 .7301.5928 1.3188 1.3204 1.3188.7268 0 1.3196-.5887 1.3196-1.3188z"/><path d="m98.311 61.9366c0-.7259-.5886-1.3145-1.312-1.3145-.7267 0-1.3196.5886-1.3196 1.3145v2.7655c0 .7301.5929 1.3195 1.3196 1.3195.7234 0 1.312-.5894 1.312-1.3195z"/><path d="m96.7946 82.4072v.1651h-.4699v1.2219h-.1929v-1.2219h-.4724v-.1651z"/><path d="m96.8933 82.4072h.3023l.4152 1.1377h.0067l.4017-1.1377h.2964v1.387h-.1979v-1.1369h-.0067l-.4211 1.1369h-.1827l-.4109-1.1369h-.0093v1.1369h-.1937z"/></g></svg>