<svg preserveAspectRatio="none" width="100%" height="100%" overflow="visible" style="display: block;" viewBox="0 0 17.5 18.5" fill="none" xmlns="http://www.w3.org/2000/svg">
<path id="vector" d="M4.5 15.25C4.5 14.5596 3.94036 14 3.25 14C2.55964 14 2 14.5596 2 15.25C2 15.9404 2.55964 16.5 3.25 16.5C3.94036 16.5 4.5 15.9404 4.5 15.25ZM4.5 3.25C4.5 2.55964 3.94036 2 3.25 2C2.55964 2 2 2.55964 2 3.25C2 3.94036 2.55964 4.5 3.25 4.5C3.94036 4.5 4.5 3.94036 4.5 3.25ZM15.5 3.25C15.5 2.55964 14.9404 2 14.25 2C13.5596 2 13 2.55964 13 3.25C13 3.94036 13.5596 4.5 14.25 4.5C14.9404 4.5 15.5 3.94036 15.5 3.25ZM17.5 3.25C17.5 4.69586 16.5554 5.91989 15.25 6.3418V7.25C15.25 8.90685 13.9069 10.25 12.25 10.25H5.25C4.69772 10.25 4.25 10.6977 4.25 11.25V12.1572C5.55556 12.579 6.5 13.804 6.5 15.25C6.5 17.0449 5.04493 18.5 3.25 18.5C1.45507 18.5 0 17.0449 0 15.25C0 13.804 0.94444 12.579 2.25 12.1572V6.3418C0.944588 5.91989 0 4.69586 0 3.25C0 1.45507 1.45507 0 3.25 0C5.04493 0 6.5 1.45507 6.5 3.25C6.5 4.69586 5.55541 5.91989 4.25 6.3418V8.42383C4.56306 8.31306 4.899 8.25 5.25 8.25H12.25C12.8023 8.25 13.25 7.80228 13.25 7.25V6.3418C11.9446 5.91989 11 4.69586 11 3.25C11 1.45507 12.4551 0 14.25 0C16.0449 0 17.5 1.45507 17.5 3.25Z" fill="var(--fill-0, #0D0D0D)"/>
</svg>
