<svg width="24" height="24" viewBox="0 0 24 24" fill="none" xmlns="http://www.w3.org/2000/svg">
  <path d="M12.55 2.25c3.88.42 6.62 3.01 8.88 6.52-2.58-1.18-5.14-1.7-7.51-1.42-.2-1.75-.64-3.47-1.37-5.1Z" fill="#2F3CFF"/>
  <path d="M21.43 8.77c1.14 3.73-.15 7.28-2.82 10.49-.33-2.84-1.19-5.3-2.58-7.25 1.44-1.02 2.83-2.06 5.4-3.24Z" fill="#38D7C2"/>
  <path d="M18.61 19.26c-2.75 2.77-6.51 3.23-10.52 2.05 2.22-1.78 3.9-3.78 4.93-5.94 1.63.69 3.3 1.88 5.59 3.89Z" fill="#2450FF"/>
  <path d="M8.09 21.31c-3.77-.99-6.1-3.97-7.82-7.77 2.38 1.57 4.82 2.48 7.21 2.58.13 1.77.3 3.35.61 5.19Z" fill="#2450FF"/>
  <path d="M.27 13.54C-.29 9.69 1.53 6.37 4.66 3.61c-.09 2.85.39 5.41 1.47 7.55-1.57.79-3.09 1.63-5.86 2.38Z" fill="#9A63FF"/>
  <path d="M4.66 3.61c3.13-2.32 6.91-2.2 10.7-.45-2.44 1.48-4.36 3.25-5.7 5.23-1.51-.92-2.98-1.78-5-4.78Z" fill="#9A63FF"/>
</svg>
