<svg preserveAspectRatio="none" width="100%" height="100%" overflow="visible" style="display: block;" viewBox="0 0 21.5 16.8573" fill="none" xmlns="http://www.w3.org/2000/svg">
<path id="vector" d="M6.57149 2C5.32883 2 4.32145 3.00738 4.32145 4.25003C4.32145 5.49269 5.32883 6.50007 6.57149 6.50007C7.81415 6.50007 8.82152 5.49269 8.82152 4.25003C8.82152 3.00738 7.81415 2 6.57149 2ZM2.32145 4.25003C2.32145 1.90281 4.22426 0 6.57149 0C8.91872 0 10.8215 1.90281 10.8215 4.25003C10.8215 6.59726 8.91872 8.50007 6.57149 8.50007C4.22426 8.50007 2.32145 6.59726 2.32145 4.25003ZM15.393 2.92858C14.4068 2.92858 13.6073 3.72809 13.6073 4.71432C13.6073 5.70056 14.4068 6.50007 15.393 6.50007C16.3792 6.50007 17.1788 5.70056 17.1788 4.71432C17.1788 3.72809 16.3792 2.92858 15.393 2.92858ZM11.6073 4.71432C11.6073 2.62352 13.3022 0.928581 15.393 0.928581C17.4838 0.928581 19.1788 2.62352 19.1788 4.71432C19.1788 6.80513 17.4838 8.50007 15.393 8.50007C13.3022 8.50007 11.6073 6.80513 11.6073 4.71432ZM3.40547 12.4259C2.58474 13.1555 2 14.2714 2 15.8573C2 16.4096 1.55228 16.8573 1 16.8573C0.447715 16.8573 0 16.4096 0 15.8573C0 13.7287 0.808128 12.0588 2.07671 10.9311C3.32689 9.81981 4.96553 9.28559 6.57148 9.28559C8.17744 9.28558 9.81608 9.81979 11.0663 10.9311C12.3348 12.0588 13.143 13.7287 13.143 15.8573C13.143 16.4096 12.6953 16.8573 12.143 16.8573C11.5907 16.8573 11.143 16.4096 11.143 15.8573C11.143 14.2714 10.5582 13.1555 9.73751 12.4259C8.89838 11.68 7.75128 11.2856 6.57149 11.2856C5.3917 11.2856 4.2446 11.68 3.40547 12.4259ZM17.952 11.8689C17.0337 11.2886 15.8204 11.1334 14.7358 11.4392C14.2043 11.5891 13.6519 11.2797 13.502 10.7482C13.3521 10.2166 13.6615 9.66419 14.193 9.51429C15.7857 9.06515 17.5902 9.27442 19.0204 10.1781C20.4876 11.1052 21.5 12.7277 21.5 14.9287C21.5 15.481 21.0523 15.9287 20.5 15.9287C19.9477 15.9287 19.5 15.481 19.5 14.9287C19.5 13.4067 18.8333 12.4257 17.952 11.8689Z" fill="var(--fill-0, #0D0D0D)"/>
</svg>
